<?xml version="1.0" standalone="no"?>
<!DOCTYPE svg PUBLIC "-//W3C//DTD SVG 20010904//EN"
 "http://www.w3.org/TR/2001/REC-SVG-20010904/DTD/svg10.dtd">
<svg version="1.0" xmlns="http://www.w3.org/2000/svg"
 width="309.000000pt" height="309.000000pt" viewBox="0 0 309.000000 309.000000"
 preserveAspectRatio="xMidYMid meet">
<metadata>
Created by potrace 1.11, written by Peter Selinger 2001-2013
</metadata>
<g transform="translate(0.000000,309.000000) scale(0.100000,-0.100000)"
fill="#000000" stroke="none">
<path d="M2 1563 c0 -841 1 -1535 4 -1543 3 -13 182 -15 1536 -15 l1533 1 3
800 2 801 -50 -1 -50 0 0 -750 0 -751 -1438 0 -1437 0 -3 1443 -2 1442 52 0
c29 1 365 1 745 1 537 0 693 2 694 12 1 7 2 29 3 50 l2 37 -797 0 -797 0 0
-1527z"/>
<path d="M1981 2854 l236 -236 -308 -308 c-170 -170 -309 -312 -309 -317 0 -4
85 -93 190 -198 l189 -189 32 29 c17 17 158 157 313 312 l281 282 238 -237
237 -237 0 668 0 667 -667 0 -668 0 236 -236z m922 136 l77 0 0 -497 0 -498
-187 188 -188 187 -312 -312 -311 -311 -121 120 c-67 66 -121 124 -121 127 0
3 137 143 305 311 168 167 305 308 305 312 0 5 -81 89 -180 188 l-180 180 37
5 c21 3 209 4 418 3 209 -1 415 -3 458 -3z"/>
</g>
</svg>
